<!-- Generator: Adobe Illustrator 25.2.1, SVG Export Plug-In  -->
<svg version="1.1" xmlns="http://www.w3.org/2000/svg" xmlns:xlink="http://www.w3.org/1999/xlink" x="0px" y="0px"
	 width="115.33px" height="137.56px" viewBox="0 0 115.33 137.56"
	 style="overflow:visible;enable-background:new 0 0 115.33 137.56;" xml:space="preserve">
<style type="text/css">
	.st0{fill:#DBBF72;}
</style>
<defs>
</defs>
<g>
	<g>
		<path class="st0" d="M1.92,121.53c0.72,0.04,1.26,0.07,1.63,0.09c0.37,0.02,0.67,0.03,0.9,0.03c0.44,0,0.86-0.01,1.28-0.03
			c0.42-0.02,0.84-0.05,1.25-0.08v0.77H6.68c-0.53,0-0.89,0.2-1.08,0.6c-0.19,0.4-0.28,1.31-0.28,2.74v2.18l0.03,8.03
			c0.38,0.02,0.73,0.04,1.07,0.05c0.34,0.01,0.66,0.02,0.96,0.02c1.8,0,2.96-0.18,3.47-0.54c0.52-0.36,0.93-1.06,1.24-2.1l0.72,0.24
			c-0.21,0.63-0.39,1.25-0.55,1.85c-0.16,0.61-0.3,1.22-0.42,1.83c-1.11-0.04-2.14-0.06-3.07-0.08c-0.94-0.02-1.81-0.03-2.63-0.03
			c-0.58,0-1.22,0.01-1.93,0.03c-0.71,0.02-1.55,0.05-2.51,0.08v-0.71c0.05,0.01,0.09,0.01,0.14,0.02c0.04,0,0.11,0.01,0.2,0.01
			c0.91-0.01,1.36-1.41,1.37-4.22c0-0.63,0-1.13,0.01-1.49l0.02-2.98c0-0.32,0-0.73,0.01-1.24c0.01-0.5,0.01-0.85,0.01-1.05
			c0-1.34-0.1-2.22-0.3-2.62c-0.2-0.41-0.58-0.61-1.15-0.61H1.92V121.53z"/>
		<path class="st0" d="M19.66,121.56h1.73c0.87,2.9,1.7,5.55,2.48,7.95c0.78,2.4,1.4,4.2,1.85,5.41c0.27,0.69,0.5,1.12,0.69,1.28
			c0.19,0.16,0.47,0.24,0.84,0.24h0.2v0.76c-0.52-0.03-1-0.05-1.43-0.07c-0.43-0.01-0.8-0.02-1.09-0.02c-0.38,0-0.79,0.01-1.24,0.02
			c-0.45,0.01-0.93,0.04-1.43,0.07v-0.76h0.19c0.48,0,0.8-0.06,0.98-0.18c0.17-0.12,0.26-0.34,0.26-0.66c0-0.12-0.01-0.25-0.04-0.39
			c-0.03-0.14-0.07-0.31-0.13-0.51l-0.99-3.36c-0.25,0-0.6,0-1.05-0.01c-0.8-0.02-1.32-0.03-1.55-0.03c-0.46,0-0.89,0-1.29,0.01
			c-0.41,0-0.83,0.01-1.26,0.03c-0.48,1.31-0.8,2.27-0.98,2.87c-0.17,0.6-0.26,1.03-0.26,1.28c0,0.36,0.09,0.61,0.26,0.75
			c0.17,0.14,0.49,0.21,0.94,0.21h0.27v0.76c-0.49-0.03-0.95-0.05-1.37-0.07c-0.43-0.01-0.81-0.02-1.14-0.02
			c-0.27,0-0.6,0.01-1.01,0.02c-0.4,0.01-0.84,0.04-1.31,0.07v-0.75c0.48-0.01,0.85-0.12,1.13-0.31c0.28-0.19,0.52-0.52,0.73-0.97
			c0.38-0.86,1.04-2.57,2-5.14C17.59,127.46,18.6,124.64,19.66,121.56z M20.11,123.62l-2.3,6.55c0.13,0,0.31,0,0.55,0.01
			c0.76,0.02,1.27,0.03,1.55,0.03c0.34,0,0.94-0.01,1.82-0.03c0.19-0.01,0.34-0.01,0.44-0.01L20.11,123.62z"/>
		<path class="st0" d="M47.06,122.07c0.01,0.54,0.05,1.09,0.1,1.65c0.05,0.56,0.13,1.13,0.23,1.71l-0.76,0.18
			c-0.19-1.04-0.64-1.8-1.35-2.3c-0.71-0.5-1.72-0.75-3.02-0.75c-1.76,0-3.12,0.56-4.09,1.69c-0.97,1.13-1.45,2.72-1.45,4.78
			c0,2.21,0.55,3.98,1.66,5.3c1.11,1.32,2.57,1.98,4.4,1.98c0.38,0,0.77-0.04,1.16-0.13c0.39-0.08,0.8-0.21,1.24-0.39
			c0.02-0.56,0.04-1.04,0.04-1.44c0.01-0.39,0.01-0.72,0.01-0.96c0-1.25-0.13-2-0.38-2.25c-0.25-0.25-0.81-0.38-1.68-0.38h-0.14
			v-0.75c0.57,0.03,1.1,0.05,1.58,0.07c0.49,0.01,0.9,0.02,1.23,0.02c0.49,0,0.95-0.01,1.37-0.02c0.43-0.01,0.83-0.04,1.22-0.07
			v0.75c-0.56,0-0.93,0.12-1.1,0.36c-0.17,0.24-0.26,0.97-0.26,2.21v1.14c0,0.56,0.01,1,0.02,1.31c0.01,0.31,0.03,0.61,0.06,0.89
			c-0.22,0.05-0.55,0.13-1,0.24c-1.74,0.42-3.05,0.64-3.94,0.64c-2.33,0-4.19-0.74-5.59-2.21c-1.4-1.48-2.1-3.43-2.1-5.87
			c0-2.44,0.75-4.43,2.26-5.96c1.51-1.53,3.46-2.3,5.86-2.3c0.72,0,1.45,0.07,2.19,0.21C45.57,121.58,46.31,121.79,47.06,122.07z"/>
		<path class="st0" d="M49.96,121.56c1.17,0.04,2.22,0.08,3.15,0.1c0.93,0.02,1.72,0.03,2.39,0.03c0.74,0,1.5-0.01,2.26-0.03
			c0.76-0.02,1.53-0.05,2.32-0.1c0.01,0.55,0.03,1.11,0.06,1.68c0.03,0.57,0.07,1.15,0.12,1.73l-0.67,0.07
			c-0.05-0.88-0.3-1.47-0.74-1.78c-0.44-0.31-1.4-0.47-2.87-0.47c-0.38,0-1.06,0.01-2.06,0.03c-0.2,0.01-0.35,0.01-0.44,0.01
			c-0.01,0.88-0.03,1.95-0.06,3.22c-0.03,1.27-0.04,2.1-0.05,2.48h0.31c0.4,0,0.89,0.01,1.48,0.02c0.59,0.01,0.99,0.02,1.19,0.02
			c0.97,0,1.61-0.1,1.93-0.3c0.31-0.2,0.48-0.56,0.51-1.1l0.63,0.07c-0.05,0.45-0.08,0.87-0.11,1.26c-0.02,0.39-0.04,0.75-0.04,1.07
			c0,0.19,0.02,0.6,0.05,1.23c0.01,0.23,0.02,0.4,0.03,0.51l-0.65,0.02v-0.09c0-0.62-0.17-1.04-0.5-1.26
			c-0.33-0.22-1.11-0.33-2.33-0.33h-1.79h-0.72c0,0.36,0,0.85-0.01,1.48c-0.01,0.63-0.01,1.09-0.01,1.36c0,0.48,0,0.98,0.01,1.51
			c0.01,0.52,0.02,1.13,0.04,1.84c0.34,0.04,0.72,0.08,1.14,0.1c0.43,0.02,0.89,0.03,1.4,0.03c1.68,0,2.79-0.18,3.32-0.53
			c0.53-0.35,0.96-1.04,1.27-2.04l0.72,0.26c-0.2,0.61-0.38,1.2-0.53,1.79c-0.15,0.58-0.29,1.17-0.4,1.74
			c-1.05-0.04-2.03-0.08-2.94-0.1c-0.91-0.02-1.72-0.03-2.45-0.03c-1,0-2.61,0.04-4.83,0.12l-0.36,0.01v-0.71
			c0.05,0.01,0.09,0.01,0.14,0.02c0.04,0,0.11,0.01,0.2,0.01c0.89,0,1.34-1.37,1.36-4.1c0.01-0.69,0.01-1.22,0.02-1.61l0.04-2.99
			c0.01-0.64,0.01-1.27,0.01-1.87c0-0.61,0.01-1.26,0.01-1.97c0-0.63-0.11-1.06-0.32-1.3s-0.6-0.36-1.15-0.36h-0.08V121.56z"/>
		<path class="st0" d="M71.4,133.36l2.9-7.19l0.12-0.3c0.96-2.36,1.44-3.75,1.44-4.19c0-0.01,0-0.04-0.01-0.07
			c-0.01-0.03-0.01-0.05-0.01-0.07c0.4,0.02,0.75,0.04,1.07,0.05c0.32,0.01,0.6,0.02,0.85,0.02c0.23,0,0.51-0.01,0.81-0.02
			c0.31-0.01,0.65-0.03,1.02-0.05v0.76h-0.12c-0.58,0-0.98,0.11-1.2,0.33c-0.22,0.22-0.33,0.61-0.33,1.17
			c0,0.22,0.01,0.71,0.04,1.47c0.03,0.76,0.06,1.58,0.1,2.47l0.17,3.08l0.01,0.3c0.15,2.73,0.26,4.28,0.34,4.63
			c0.04,0.21,0.16,0.38,0.37,0.49c0.21,0.12,0.48,0.18,0.81,0.18h0.25v0.77c-0.53-0.03-1.02-0.05-1.48-0.07
			c-0.46-0.01-0.83-0.02-1.13-0.02c-0.35,0-0.75,0.01-1.19,0.02c-0.44,0.01-0.91,0.04-1.42,0.07v-0.79c0.06,0,0.14,0,0.23,0.01
			c0.09,0.01,0.16,0.01,0.2,0.01c0.51,0,0.86-0.1,1.06-0.3c0.2-0.2,0.3-0.55,0.3-1.07c0-0.24,0-0.48-0.01-0.71
			c-0.01-0.23-0.02-0.47-0.03-0.72l-0.39-9.42l-4.12,10.33c-0.01,0.01-0.02,0.05-0.04,0.1c-0.32,0.72-0.56,1.49-0.71,2.31h-0.66
			c-0.09-0.45-0.33-1.15-0.7-2.08l-0.04-0.1l-4.05-10c-0.04,0.78-0.1,1.86-0.17,3.22c-0.19,3.39-0.28,5.51-0.28,6.37v0.11
			c0,0.93,0.1,1.49,0.29,1.68c0.19,0.19,0.58,0.29,1.17,0.29h0.21v0.77c-0.44-0.03-0.85-0.05-1.25-0.07
			c-0.4-0.01-0.79-0.02-1.16-0.02c-0.27,0-0.6,0.01-1,0.02c-0.4,0.01-0.83,0.04-1.28,0.07v-0.77h0.28c0.38,0,0.67-0.05,0.85-0.15
			c0.19-0.1,0.34-0.28,0.44-0.54c0.13-0.3,0.26-1.51,0.39-3.64c0.03-0.58,0.06-1.05,0.09-1.39l0.18-2.65v-0.03
			c0.18-2.62,0.27-4.11,0.27-4.47c0-0.46-0.1-0.78-0.31-0.96c-0.2-0.18-0.59-0.27-1.16-0.27h-0.16v-0.76c0.05,0,0.14,0,0.26,0.01
			c0.78,0.05,1.32,0.08,1.63,0.08c0.23,0,0.68-0.02,1.34-0.07c0.21-0.01,0.37-0.02,0.47-0.02v0.07c0,0.65,1.14,3.72,3.41,9.2
			L71.4,133.36z"/>
		<path class="st0" d="M90.15,133.36l2.9-7.19l0.12-0.3c0.96-2.36,1.44-3.75,1.44-4.19c0-0.01,0-0.04-0.01-0.07
			c-0.01-0.03-0.01-0.05-0.01-0.07c0.4,0.02,0.75,0.04,1.07,0.05c0.32,0.01,0.6,0.02,0.85,0.02c0.23,0,0.51-0.01,0.81-0.02
			c0.31-0.01,0.65-0.03,1.02-0.05v0.76h-0.12c-0.58,0-0.98,0.11-1.2,0.33c-0.22,0.22-0.33,0.61-0.33,1.17
			c0,0.22,0.01,0.71,0.04,1.47c0.03,0.76,0.06,1.58,0.1,2.47l0.17,3.08l0.01,0.3c0.15,2.73,0.26,4.28,0.34,4.63
			c0.04,0.21,0.16,0.38,0.37,0.49c0.21,0.12,0.48,0.18,0.81,0.18h0.25v0.77c-0.53-0.03-1.02-0.05-1.48-0.07
			c-0.46-0.01-0.83-0.02-1.13-0.02c-0.35,0-0.75,0.01-1.19,0.02c-0.44,0.01-0.91,0.04-1.42,0.07v-0.79c0.06,0,0.14,0,0.23,0.01
			c0.09,0.01,0.16,0.01,0.2,0.01c0.51,0,0.86-0.1,1.06-0.3c0.2-0.2,0.3-0.55,0.3-1.07c0-0.24,0-0.48-0.01-0.71
			c-0.01-0.23-0.02-0.47-0.03-0.72l-0.39-9.42l-4.12,10.33c-0.01,0.01-0.02,0.05-0.04,0.1c-0.32,0.72-0.56,1.49-0.71,2.31h-0.66
			c-0.09-0.45-0.33-1.15-0.7-2.08l-0.04-0.1l-4.05-10c-0.04,0.78-0.1,1.86-0.17,3.22c-0.19,3.39-0.28,5.51-0.28,6.37v0.11
			c0,0.93,0.1,1.49,0.29,1.68c0.19,0.19,0.58,0.29,1.17,0.29h0.21v0.77c-0.44-0.03-0.85-0.05-1.25-0.07
			c-0.4-0.01-0.79-0.02-1.16-0.02c-0.27,0-0.6,0.01-1,0.02c-0.4,0.01-0.83,0.04-1.28,0.07v-0.77h0.28c0.38,0,0.67-0.05,0.85-0.15
			c0.19-0.1,0.34-0.28,0.44-0.54c0.13-0.3,0.26-1.51,0.39-3.64c0.03-0.58,0.06-1.05,0.09-1.39l0.18-2.65v-0.03
			c0.18-2.62,0.27-4.11,0.27-4.47c0-0.46-0.1-0.78-0.31-0.96c-0.2-0.18-0.59-0.27-1.16-0.27H82v-0.76c0.05,0,0.14,0,0.26,0.01
			c0.78,0.05,1.32,0.08,1.63,0.08c0.23,0,0.68-0.02,1.34-0.07c0.21-0.01,0.37-0.02,0.47-0.02v0.07c0,0.65,1.14,3.72,3.41,9.2
			L90.15,133.36z"/>
		<path class="st0" d="M106.09,121.56h1.73c0.87,2.9,1.7,5.55,2.48,7.95c0.78,2.4,1.4,4.2,1.85,5.41c0.27,0.69,0.5,1.12,0.69,1.28
			c0.19,0.16,0.47,0.24,0.84,0.24h0.2v0.76c-0.52-0.03-1-0.05-1.43-0.07c-0.43-0.01-0.8-0.02-1.09-0.02c-0.38,0-0.79,0.01-1.24,0.02
			c-0.45,0.01-0.93,0.04-1.43,0.07v-0.76h0.19c0.48,0,0.8-0.06,0.98-0.18c0.17-0.12,0.26-0.34,0.26-0.66c0-0.12-0.01-0.25-0.04-0.39
			c-0.03-0.14-0.07-0.31-0.13-0.51l-0.99-3.36c-0.25,0-0.6,0-1.05-0.01c-0.8-0.02-1.32-0.03-1.55-0.03c-0.46,0-0.89,0-1.29,0.01
			c-0.41,0-0.83,0.01-1.26,0.03c-0.48,1.31-0.8,2.27-0.98,2.87c-0.17,0.6-0.26,1.03-0.26,1.28c0,0.36,0.09,0.61,0.26,0.75
			c0.17,0.14,0.49,0.21,0.94,0.21h0.27v0.76c-0.49-0.03-0.95-0.05-1.37-0.07c-0.43-0.01-0.81-0.02-1.14-0.02
			c-0.27,0-0.6,0.01-1.01,0.02c-0.4,0.01-0.84,0.04-1.31,0.07v-0.75c0.48-0.01,0.85-0.12,1.13-0.31c0.28-0.19,0.52-0.52,0.73-0.97
			c0.38-0.86,1.04-2.57,2-5.14C104.03,127.46,105.03,124.64,106.09,121.56z M106.55,123.62l-2.3,6.55c0.13,0,0.31,0,0.55,0.01
			c0.76,0.02,1.27,0.03,1.55,0.03c0.34,0,0.94-0.01,1.82-0.03c0.19-0.01,0.34-0.01,0.44-0.01L106.55,123.62z"/>
	</g>
	<g>
		<g>
			<path class="st0" d="M90.65,40.71c0-7.75,6.29-14.04,14.04-14.04c3.77,0,7.2,1.49,9.72,3.91l0.92-2.01l-5.2-5.72
				c-1.91-0.75-3.99-1.16-6.16-1.16c-9.34,0-16.91,7.57-16.91,16.91v30.77l3.62-4.15L90.65,40.71z"/>
			<path class="st0" d="M76.64,36.52c0-13.14,8.04-24.41,19.46-29.15l5.64,6.21c-12.15,1.69-21.5,12.13-21.5,24.74V77.3l-3.59,4.14
				V36.52z"/>
			<path class="st0" d="M69.79,49.4v39.96l-3.62,4.18V29.92c0-11.4,4.13-21.83,10.97-29.88l12.47,0
				C77.63,8.38,69.79,22.26,69.79,37.97V49.4z"/>
			<path class="st0" d="M57.67,0h-4.57c1.45,7.97,2.9,45.5,2.9,45.5v56.03l1.68,1.92l1.68-1.92V45.5c0,0,1.45-37.53,2.9-45.5
				L57.67,0z"/>
			<path class="st0" d="M24.69,40.71c0-7.75-6.29-14.04-14.04-14.04c-3.77,0-7.2,1.49-9.72,3.91L0,28.58l5.2-5.72
				c1.91-0.75,3.99-1.16,6.16-1.16c9.34,0,16.91,7.57,16.91,16.91v30.77l-3.62-4.15L24.69,40.71z"/>
			<path class="st0" d="M38.69,36.52c0-13.14-8.04-24.41-19.46-29.15l-5.64,6.21c12.15,1.69,21.5,12.13,21.5,24.74V77.3l3.59,4.14
				V36.52z"/>
			<path class="st0" d="M45.55,49.4v39.96l3.62,4.18V29.92c0-11.4-4.13-21.83-10.97-29.88l-12.47,0
				C37.7,8.38,45.55,22.26,45.55,37.97V49.4z"/>
		</g>
		<path class="st0" d="M97.48,49.01c0-6.06,4.91-10.97,10.97-10.97c1.7,0,3.32,0.39,4.75,1.08l-2.7,3.09
			c-0.38-0.05-0.76-0.08-1.15-0.08c-4.39,0-7.96,3.56-7.96,7.96v2.7l-3.92,4.54V49.01z"/>
		<path class="st0" d="M17.85,49.01c0-6.06-4.91-10.97-10.97-10.97c-1.7,0-3.32,0.39-4.75,1.08l2.7,3.09
			c0.38-0.05,0.76-0.08,1.15-0.08c4.39,0,7.96,3.56,7.96,7.96v2.7l3.92,4.54V49.01z"/>
	</g>
</g>
</svg>
